<svg version="1.1" xmlns="http://www.w3.org/2000/svg" xmlns:xlink="http://www.w3.org/1999/xlink" width="646.919921875" height="592"><defs/><g><g transform="translate(-54,-54) scale(1,1)"><rect fill="#C0C0C0" stroke="none" x="71" y="303" width="87.0126953125" height="44" opacity="0.2"/></g><g transform="translate(-54,-54) scale(1,1)"><rect fill="#ffffff" stroke="none" x="64" y="296" width="87.0126953125" height="44"/></g><g transform="translate(-54,-54) scale(1,1)"><path fill="none" stroke="#000000" d="M 64 296 L 151.0126953125 296 L 151.0126953125 340 L 64 340 L 64 296 Z Z" stroke-miterlimit="10"/></g><g transform="translate(-54,-54) scale(1,1)"><path fill="none" stroke="#000000" d="M 64 321 L 151.0126953125 321" stroke-miterlimit="10"/></g><g transform="translate(-54,-54) scale(1,1)"><path fill="none" stroke="#000000" d="M 64 331 L 151.0126953125 331" stroke-miterlimit="10"/></g><g transform="translate(-54,-54) scale(1,1)"><g><path fill="none" stroke="none"/><text fill="#000000" stroke="none" font-family="Arial" font-size="13px" font-style="normal" font-weight="bold" text-decoration="none" x="69.22998046875" y="315.5">Mask R-CNN</text></g></g><g transform="translate(-54,-54) scale(1,1)"><rect fill="#C0C0C0" stroke="none" x="191" y="303" width="88" height="47" opacity="0.2"/></g><g transform="translate(-54,-54) scale(1,1)"><rect fill="#ffffff" stroke="none" x="184" y="296" width="88" height="47"/></g><g transform="translate(-54,-54) scale(1,1)"><path fill="none" stroke="#000000" d="M 184 296 L 272 296 L 272 343 L 184 343 L 184 296 Z Z" stroke-miterlimit="10"/></g><g transform="translate(-54,-54) scale(1,1)"><path fill="none" stroke="#000000" d="M 184 321 L 272 321" stroke-miterlimit="10"/></g><g transform="translate(-54,-54) scale(1,1)"><path fill="none" stroke="#000000" d="M 184 331 L 272 331" stroke-miterlimit="10"/></g><g transform="translate(-54,-54) scale(1,1)"><g><path fill="none" stroke="none"/><text fill="#000000" stroke="none" font-family="Arial" font-size="13px" font-style="normal" font-weight="bold" text-decoration="none" x="207.766845703125" y="315.5">Builder</text></g></g><g transform="translate(-54,-54) scale(1,1)"><rect fill="#C0C0C0" stroke="none" x="463" y="271" width="61.74267578125" height="44" opacity="0.2"/></g><g transform="translate(-54,-54) scale(1,1)"><rect fill="#ffffff" stroke="none" x="456" y="264" width="61.74267578125" height="44"/></g><g transform="translate(-54,-54) scale(1,1)"><path fill="none" stroke="#000000" d="M 456 264 L 517.74267578125 264 L 517.74267578125 308 L 456 308 L 456 264 Z Z" stroke-miterlimit="10"/></g><g transform="translate(-54,-54) scale(1,1)"><path fill="none" stroke="#000000" d="M 456 289 L 517.74267578125 289" stroke-miterlimit="10"/></g><g transform="translate(-54,-54) scale(1,1)"><path fill="none" stroke="#000000" d="M 456 299 L 517.74267578125 299" stroke-miterlimit="10"/></g><g transform="translate(-54,-54) scale(1,1)"><g><path fill="none" stroke="none"/><text fill="#000000" stroke="none" font-family="Arial" font-size="13px" font-style="normal" font-weight="bold" text-decoration="none" x="462.299560546875" y="283.5">Instance</text></g></g><g transform="translate(-54,-54) scale(1,1)"><path fill="none" stroke="#000000" d="M 256 296 L 256 240 L 456 240 L 456 200 L 504 200" stroke-miterlimit="10" stroke-dasharray="3"/></g><g transform="translate(-54,-54) scale(1,1)"><path fill="none" stroke="#000000" d="M 493.83732514237585 204.209517756016 L 504 200 L 493.83732514237585 195.790482243984" stroke-miterlimit="10"/></g><g transform="translate(-54,-54) scale(1,1)"><g><path fill="none" stroke="none"/><text fill="#000000" stroke="none" font-family="Arial" font-size="13px" font-style="normal" font-weight="normal" text-decoration="none" x="391.5" y="260.5">+create</text></g></g><g transform="translate(-54,-54) scale(1,1)"><rect fill="#C0C0C0" stroke="none" x="199" y="71" width="79" height="55" opacity="0.2"/></g><g transform="translate(-54,-54) scale(1,1)"><rect fill="#ffffff" stroke="none" x="192" y="64" width="79" height="55"/></g><g transform="translate(-54,-54) scale(1,1)"><path fill="none" stroke="#000000" d="M 192 64 L 271 64 L 271 119 L 192 119 L 192 64 Z Z" stroke-miterlimit="10"/></g><g transform="translate(-54,-54) scale(1,1)"><path fill="none" stroke="#000000" d="M 192 89 L 271 89" stroke-miterlimit="10"/></g><g transform="translate(-54,-54) scale(1,1)"><path fill="none" stroke="#000000" d="M 192 99 L 271 99" stroke-miterlimit="10"/></g><g transform="translate(-54,-54) scale(1,1)"><g><path fill="none" stroke="none"/><text fill="#000000" stroke="none" font-family="Arial" font-size="13px" font-style="normal" font-weight="bold" text-decoration="none" x="214.8818359375" y="83.5">Client</text></g></g><g transform="translate(-54,-54) scale(1,1)"><rect fill="#C0C0C0" stroke="none" x="551" y="271" width="64" height="44" opacity="0.2"/></g><g transform="translate(-54,-54) scale(1,1)"><rect fill="#ffffff" stroke="none" x="544" y="264" width="64" height="44"/></g><g transform="translate(-54,-54) scale(1,1)"><path fill="none" stroke="#000000" d="M 544 264 L 608 264 L 608 308 L 544 308 L 544 264 Z Z" stroke-miterlimit="10"/></g><g transform="translate(-54,-54) scale(1,1)"><path fill="none" stroke="#000000" d="M 544 289 L 608 289" stroke-miterlimit="10"/></g><g transform="translate(-54,-54) scale(1,1)"><path fill="none" stroke="#000000" d="M 544 299 L 608 299" stroke-miterlimit="10"/></g><g transform="translate(-54,-54) scale(1,1)"><g><path fill="none" stroke="none"/><text fill="#000000" stroke="none" font-family="Arial" font-size="13px" font-style="normal" font-weight="bold" text-decoration="none" x="557.9345703125" y="283.5">Group</text></g></g><g transform="translate(-54,-54) scale(1,1)"><rect fill="#C0C0C0" stroke="none" x="511" y="183" width="50.919921875" height="44" opacity="0.2"/></g><g transform="translate(-54,-54) scale(1,1)"><rect fill="#ffffff" stroke="none" x="504" y="176" width="50.919921875" height="44"/></g><g transform="translate(-54,-54) scale(1,1)"><path fill="none" stroke="#000000" d="M 504 176 L 554.919921875 176 L 554.919921875 220 L 504 220 L 504 176 Z Z" stroke-miterlimit="10"/></g><g transform="translate(-54,-54) scale(1,1)"><path fill="none" stroke="#000000" d="M 504 201 L 554.919921875 201" stroke-miterlimit="10"/></g><g transform="translate(-54,-54) scale(1,1)"><path fill="none" stroke="#000000" d="M 504 211 L 554.919921875 211" stroke-miterlimit="10"/></g><g transform="translate(-54,-54) scale(1,1)"><g><path fill="none" stroke="none"/><text fill="#000000" stroke="none" font-family="Arial" font-size="13px" font-style="normal" font-weight="bold" text-decoration="none" x="513.9208984375" y="195.5">Node</text></g></g><g transform="translate(-54,-54) scale(1,1)"><path fill="none" stroke="#000000" d="M 486 264 L 486 250 L 529 250 L 529 220" stroke-miterlimit="10"/></g><g transform="translate(-54,-54) scale(1,1)"><path fill="#FFFFFF" stroke="none" d="M 537.419035512032 240.3253497152483 L 529 220 L 520.580964487968 240.3253497152483"/></g><g transform="translate(-54,-54) scale(1,1)"><path fill="none" stroke="#000000" d="M 537.419035512032 240.3253497152483 L 529 220 L 520.580964487968 240.3253497152483 L 537.419035512032 240.3253497152483" stroke-miterlimit="10"/></g><g transform="translate(-54,-54) scale(1,1)"><path fill="none" stroke="#000000" d="M 555 208 L 632 208 L 632 288 L 608 288" stroke-miterlimit="10"/></g><g transform="translate(-54,-54) scale(1,1)"><path fill="#FFFFFF" stroke="none" d="M 618.1626748576241 283.790482243984 L 608 288 L 618.1626748576241 292.209517756016 L 630 288"/></g><g transform="translate(-54,-54) scale(1,1)"><path fill="none" stroke="#000000" d="M 618.1626748576241 283.790482243984 L 608 288 L 618.1626748576241 292.209517756016 L 630 288 L 618.1626748576241 283.790482243984" stroke-miterlimit="10"/></g><g transform="translate(-54,-54) scale(1,1)"><path fill="none" stroke="#000000" d="M 576 264 L 576 250 L 529 250 L 529 220" stroke-miterlimit="10"/></g><g transform="translate(-54,-54) scale(1,1)"><path fill="#FFFFFF" stroke="none" d="M 537.419035512032 240.3253497152483 L 529 220 L 520.580964487968 240.3253497152483"/></g><g transform="translate(-54,-54) scale(1,1)"><path fill="none" stroke="#000000" d="M 537.419035512032 240.3253497152483 L 529 220 L 520.580964487968 240.3253497152483 L 537.419035512032 240.3253497152483" stroke-miterlimit="10"/></g><g transform="translate(-54,-54) scale(1,1)"><rect fill="#C0C0C0" stroke="none" x="191" y="159" width="99.32080078125" height="44" opacity="0.2"/></g><g transform="translate(-54,-54) scale(1,1)"><rect fill="#ffffff" stroke="none" x="184" y="152" width="99.32080078125" height="44"/></g><g transform="translate(-54,-54) scale(1,1)"><path fill="none" stroke="#000000" d="M 184 152 L 283.32080078125 152 L 283.32080078125 196 L 184 196 L 184 152 Z Z" stroke-miterlimit="10"/></g><g transform="translate(-54,-54) scale(1,1)"><path fill="none" stroke="#000000" d="M 184 177 L 283.32080078125 177" stroke-miterlimit="10"/></g><g transform="translate(-54,-54) scale(1,1)"><path fill="none" stroke="#000000" d="M 184 187 L 283.32080078125 187" stroke-miterlimit="10"/></g><g transform="translate(-54,-54) scale(1,1)"><g><path fill="none" stroke="none"/><text fill="#000000" stroke="none" font-family="Arial" font-size="13px" font-style="normal" font-weight="bold" text-decoration="none" x="219.57177734375" y="171.5">Main</text></g></g><g transform="translate(-54,-54) scale(1,1)"><rect fill="#C0C0C0" stroke="none" x="575" y="479" width="50.919921875" height="44" opacity="0.2"/></g><g transform="translate(-54,-54) scale(1,1)"><rect fill="#ffffff" stroke="none" x="568" y="472" width="50.919921875" height="44"/></g><g transform="translate(-54,-54) scale(1,1)"><path fill="none" stroke="#000000" d="M 568 472 L 618.919921875 472 L 618.919921875 516 L 568 516 L 568 472 Z Z" stroke-miterlimit="10"/></g><g transform="translate(-54,-54) scale(1,1)"><path fill="none" stroke="#000000" d="M 568 497 L 618.919921875 497" stroke-miterlimit="10"/></g><g transform="translate(-54,-54) scale(1,1)"><path fill="none" stroke="#000000" d="M 568 507 L 618.919921875 507" stroke-miterlimit="10"/></g><g transform="translate(-54,-54) scale(1,1)"><g><path fill="none" stroke="none"/><text fill="#000000" stroke="none" font-family="Arial" font-size="13px" font-style="normal" font-weight="bold" text-decoration="none" x="579.015869140625" y="491.5">Filter</text></g></g><g transform="translate(-54,-54) scale(1,1)"><rect fill="#C0C0C0" stroke="none" x="511" y="599" width="50.919921875" height="44" opacity="0.2"/></g><g transform="translate(-54,-54) scale(1,1)"><rect fill="#ffffff" stroke="none" x="504" y="592" width="50.919921875" height="44"/></g><g transform="translate(-54,-54) scale(1,1)"><path fill="none" stroke="#000000" d="M 504 592 L 554.919921875 592 L 554.919921875 636 L 504 636 L 504 592 Z Z" stroke-miterlimit="10"/></g><g transform="translate(-54,-54) scale(1,1)"><path fill="none" stroke="#000000" d="M 504 617 L 554.919921875 617" stroke-miterlimit="10"/></g><g transform="translate(-54,-54) scale(1,1)"><path fill="none" stroke="#000000" d="M 504 627 L 554.919921875 627" stroke-miterlimit="10"/></g><g transform="translate(-54,-54) scale(1,1)"><g><path fill="none" stroke="none"/><text fill="#000000" stroke="none" font-family="Arial" font-size="13px" font-style="normal" font-weight="bold" text-decoration="none" x="517.90087890625" y="611.5">Blur</text></g></g><g transform="translate(-54,-54) scale(1,1)"><rect fill="#C0C0C0" stroke="none" x="591" y="599" width="66.052734375" height="44" opacity="0.2"/></g><g transform="translate(-54,-54) scale(1,1)"><rect fill="#ffffff" stroke="none" x="584" y="592" width="66.052734375" height="44"/></g><g transform="translate(-54,-54) scale(1,1)"><path fill="none" stroke="#000000" d="M 584 592 L 650.052734375 592 L 650.052734375 636 L 584 636 L 584 592 Z Z" stroke-miterlimit="10"/></g><g transform="translate(-54,-54) scale(1,1)"><path fill="none" stroke="#000000" d="M 584 617 L 650.052734375 617" stroke-miterlimit="10"/></g><g transform="translate(-54,-54) scale(1,1)"><path fill="none" stroke="#000000" d="M 584 627 L 650.052734375 627" stroke-miterlimit="10"/></g><g transform="translate(-54,-54) scale(1,1)"><g><path fill="none" stroke="none"/><text fill="#000000" stroke="none" font-family="Arial" font-size="13px" font-style="normal" font-weight="bold" text-decoration="none" x="591.023193359375" y="611.5">UnitFilter</text></g></g><g transform="translate(-54,-54) scale(1,1)"><rect fill="#C0C0C0" stroke="none" x="647" y="479" width="50.919921875" height="44" opacity="0.2"/></g><g transform="translate(-54,-54) scale(1,1)"><rect fill="#ffffff" stroke="none" x="640" y="472" width="50.919921875" height="44"/></g><g transform="translate(-54,-54) scale(1,1)"><path fill="none" stroke="#000000" d="M 640 472 L 690.919921875 472 L 690.919921875 516 L 640 516 L 640 472 Z Z" stroke-miterlimit="10"/></g><g transform="translate(-54,-54) scale(1,1)"><path fill="none" stroke="#000000" d="M 640 497 L 690.919921875 497" stroke-miterlimit="10"/></g><g transform="translate(-54,-54) scale(1,1)"><path fill="none" stroke="#000000" d="M 640 507 L 690.919921875 507" stroke-miterlimit="10"/></g><g transform="translate(-54,-54) scale(1,1)"><g><path fill="none" stroke="none"/><text fill="#000000" stroke="none" font-family="Arial" font-size="13px" font-style="normal" font-weight="bold" text-decoration="none" x="649.5654296875" y="491.5">Move</text></g></g><g transform="translate(-54,-54) scale(1,1)"><path fill="none" stroke="#000000" d="M 617 592 L 617 562 L 593 562 L 593 516" stroke-miterlimit="10"/></g><g transform="translate(-54,-54) scale(1,1)"><path fill="#FFFFFF" stroke="none" d="M 601.419035512032 536.3253497152483 L 593 516 L 584.580964487968 536.3253497152483"/></g><g transform="translate(-54,-54) scale(1,1)"><path fill="none" stroke="#000000" d="M 601.419035512032 536.3253497152483 L 593 516 L 584.580964487968 536.3253497152483 L 601.419035512032 536.3253497152483" stroke-miterlimit="10"/></g><g transform="translate(-54,-54) scale(1,1)"><rect fill="#C0C0C0" stroke="none" x="479" y="375" width="50.919921875" height="44" opacity="0.2"/></g><g transform="translate(-54,-54) scale(1,1)"><rect fill="#ffffff" stroke="none" x="472" y="368" width="50.919921875" height="44"/></g><g transform="translate(-54,-54) scale(1,1)"><path fill="none" stroke="#000000" d="M 472 368 L 522.919921875 368 L 522.919921875 412 L 472 412 L 472 368 Z Z" stroke-miterlimit="10"/></g><g transform="translate(-54,-54) scale(1,1)"><path fill="none" stroke="#000000" d="M 472 393 L 522.919921875 393" stroke-miterlimit="10"/></g><g transform="translate(-54,-54) scale(1,1)"><path fill="none" stroke="#000000" d="M 472 403 L 522.919921875 403" stroke-miterlimit="10"/></g><g transform="translate(-54,-54) scale(1,1)"><g><path fill="none" stroke="none"/><text fill="#000000" stroke="none" font-family="Arial" font-size="13px" font-style="normal" font-weight="bold" text-decoration="none" x="480.959228515625" y="387.5">Effect</text></g></g><g transform="translate(-54,-54) scale(1,1)"><path fill="none" stroke="#000000" d="M 488 308 L 488 368" stroke-miterlimit="10"/></g><g transform="translate(-54,-54) scale(1,1)"><path fill="none" stroke="#000000" d="M 483.790482243984 357.83732514237585 L 488 368 L 492.209517756016 357.83732514237585" stroke-miterlimit="10"/></g><g transform="translate(-54,-54) scale(1,1)"><path fill="none" stroke="#000000" d="M 232 120 L 232 151" stroke-miterlimit="10"/></g><g transform="translate(-54,-54) scale(1,1)"><path fill="none" stroke="#000000" d="M 227.790482243984 140.83732514237585 L 232 151 L 236.209517756016 140.83732514237585" stroke-miterlimit="10"/></g><g transform="translate(-54,-54) scale(1,1)"><path fill="none" stroke="#000000" d="M 283 182 L 504 182" stroke-miterlimit="10"/></g><g transform="translate(-54,-54) scale(1,1)"><path fill="none" stroke="#000000" d="M 493.83732514237585 186.209517756016 L 504 182 L 493.83732514237585 177.790482243984" stroke-miterlimit="10"/></g><g transform="translate(-54,-54) scale(1,1)"><path fill="none" stroke="#000000" d="M 184 176 L 112 176 L 112 296" stroke-miterlimit="10"/></g><g transform="translate(-54,-54) scale(1,1)"><path fill="none" stroke="#000000" d="M 107.79048224398402 285.83732514237585 L 112 296 L 116.20951775601598 285.83732514237585" stroke-miterlimit="10"/></g><g transform="translate(-54,-54) scale(1,1)"><path fill="none" stroke="#000000" d="M 232 197 L 229 295" stroke-miterlimit="10"/></g><g transform="translate(-54,-54) scale(1,1)"><path fill="none" stroke="#000000" d="M 225.1034098738944 284.7132811164523 L 229 295 L 233.51850337704246 284.9708860196099" stroke-miterlimit="10"/></g><g transform="translate(-54,-54) scale(1,1)"><path fill="none" stroke="#000000" d="M 480 368 L 480 308" stroke-miterlimit="10"/></g><g transform="translate(-54,-54) scale(1,1)"><path fill="none" stroke="#000000" d="M 484.209517756016 318.16267485762415 L 480 308 L 475.790482243984 318.16267485762415" stroke-miterlimit="10"/></g><g transform="translate(-54,-54) scale(1,1)"><rect fill="#C0C0C0" stroke="none" x="471" y="479" width="90.7490234375" height="44" opacity="0.2"/></g><g transform="translate(-54,-54) scale(1,1)"><rect fill="#ffffff" stroke="none" x="464" y="472" width="90.7490234375" height="44"/></g><g transform="translate(-54,-54) scale(1,1)"><path fill="none" stroke="#000000" d="M 464 472 L 554.7490234375 472 L 554.7490234375 516 L 464 516 L 464 472 Z Z" stroke-miterlimit="10"/></g><g transform="translate(-54,-54) scale(1,1)"><path fill="none" stroke="#000000" d="M 464 497 L 554.7490234375 497" stroke-miterlimit="10"/></g><g transform="translate(-54,-54) scale(1,1)"><path fill="none" stroke="#000000" d="M 464 507 L 554.7490234375 507" stroke-miterlimit="10"/></g><g transform="translate(-54,-54) scale(1,1)"><g><path fill="none" stroke="none"/><text fill="#000000" stroke="none" font-family="Arial" font-size="13px" font-style="normal" font-weight="bold" text-decoration="none" x="478.788330078125" y="491.5">GrayEffect</text></g></g><g transform="translate(-54,-54) scale(1,1)"><rect fill="#C0C0C0" stroke="none" x="351" y="479" width="107.39453125" height="44" opacity="0.2"/></g><g transform="translate(-54,-54) scale(1,1)"><rect fill="#ffffff" stroke="none" x="344" y="472" width="107.39453125" height="44"/></g><g transform="translate(-54,-54) scale(1,1)"><path fill="none" stroke="#000000" d="M 344 472 L 451.39453125 472 L 451.39453125 516 L 344 516 L 344 472 Z Z" stroke-miterlimit="10"/></g><g transform="translate(-54,-54) scale(1,1)"><path fill="none" stroke="#000000" d="M 344 497 L 451.39453125 497" stroke-miterlimit="10"/></g><g transform="translate(-54,-54) scale(1,1)"><path fill="none" stroke="#000000" d="M 344 507 L 451.39453125 507" stroke-miterlimit="10"/></g><g transform="translate(-54,-54) scale(1,1)"><g><path fill="none" stroke="none"/><text fill="#000000" stroke="none" font-family="Arial" font-size="13px" font-style="normal" font-weight="bold" text-decoration="none" x="363.734130859375" y="491.5">Binarization</text></g></g><g transform="translate(-54,-54) scale(1,1)"><path fill="none" stroke="#000000" d="M 665 472 L 665 454 L 497 454 L 497 412" stroke-miterlimit="10"/></g><g transform="translate(-54,-54) scale(1,1)"><path fill="#FFFFFF" stroke="none" d="M 505.419035512032 432.3253497152483 L 497 412 L 488.580964487968 432.3253497152483"/></g><g transform="translate(-54,-54) scale(1,1)"><path fill="none" stroke="#000000" d="M 505.419035512032 432.3253497152483 L 497 412 L 488.580964487968 432.3253497152483 L 505.419035512032 432.3253497152483" stroke-miterlimit="10"/></g><g transform="translate(-54,-54) scale(1,1)"><path fill="none" stroke="#000000" d="M 593 472 L 593 454 L 497 454 L 497 412" stroke-miterlimit="10"/></g><g transform="translate(-54,-54) scale(1,1)"><path fill="#FFFFFF" stroke="none" d="M 505.419035512032 432.3253497152483 L 497 412 L 488.580964487968 432.3253497152483"/></g><g transform="translate(-54,-54) scale(1,1)"><path fill="none" stroke="#000000" d="M 505.419035512032 432.3253497152483 L 497 412 L 488.580964487968 432.3253497152483 L 505.419035512032 432.3253497152483" stroke-miterlimit="10"/></g><g transform="translate(-54,-54) scale(1,1)"><path fill="none" stroke="#000000" d="M 509 472 L 509 454 L 497 454 L 497 412" stroke-miterlimit="10"/></g><g transform="translate(-54,-54) scale(1,1)"><path fill="#FFFFFF" stroke="none" d="M 505.419035512032 432.3253497152483 L 497 412 L 488.580964487968 432.3253497152483"/></g><g transform="translate(-54,-54) scale(1,1)"><path fill="none" stroke="#000000" d="M 505.419035512032 432.3253497152483 L 497 412 L 488.580964487968 432.3253497152483 L 505.419035512032 432.3253497152483" stroke-miterlimit="10"/></g><g transform="translate(-54,-54) scale(1,1)"><path fill="none" stroke="#000000" d="M 397 472 L 397 454 L 497 454 L 497 412" stroke-miterlimit="10"/></g><g transform="translate(-54,-54) scale(1,1)"><path fill="#FFFFFF" stroke="none" d="M 505.419035512032 432.3253497152483 L 497 412 L 488.580964487968 432.3253497152483"/></g><g transform="translate(-54,-54) scale(1,1)"><path fill="none" stroke="#000000" d="M 505.419035512032 432.3253497152483 L 497 412 L 488.580964487968 432.3253497152483 L 505.419035512032 432.3253497152483" stroke-miterlimit="10"/></g><g transform="translate(-54,-54) scale(1,1)"><path fill="none" stroke="#000000" d="M 529 592 L 529 562 L 593 562 L 593 516" stroke-miterlimit="10"/></g><g transform="translate(-54,-54) scale(1,1)"><path fill="#FFFFFF" stroke="none" d="M 601.419035512032 536.3253497152483 L 593 516 L 584.580964487968 536.3253497152483"/></g><g transform="translate(-54,-54) scale(1,1)"><path fill="none" stroke="#000000" d="M 601.419035512032 536.3253497152483 L 593 516 L 584.580964487968 536.3253497152483 L 601.419035512032 536.3253497152483" stroke-miterlimit="10"/></g></g></svg>