<?xml version="1.0" encoding="utf-8"?>
<!-- Generator: Adobe Illustrator 22.1.0, SVG Export Plug-In . SVG Version: 6.00 Build 0)  -->
<svg version="1.1" id="圖層_1" xmlns="http://www.w3.org/2000/svg" xmlns:xlink="http://www.w3.org/1999/xlink" x="0px" y="0px"
	 viewBox="0 0 512 512" style="enable-background:new 0 0 512 512;" xml:space="preserve" width="150px" height="150px">
<style type="text/css">
	.st0{fill:#231815;stroke:#231815;stroke-miterlimit:10;}
</style>
<g id="Capa_1">
	<g>
		<g>
			<path class="st0" d="M409,279.5c-2.7,0.4-4.9,2.2-5.9,4.7c-1.3,3.5,0.6,6.5,0.8,6.8c2.1,1.7,3.4,4.3,3.4,7.1v146.1
				c0,5.1-4.1,9.2-9.2,9.2h-36.6c22-20.6,35.7-49.8,35.7-82.2c0-25-8.2-48.2-22.1-66.9c-1-0.5-3-1.5-5.6-1.4c-2.4,0.1-4.2,0.9-5,1.3
				c-1.6,0.8-2.7,1.7-3.3,2.4c14.7,17.5,23.6,40,23.6,64.6c0,34-17,64.1-43,82.2c-7.4,5.2-15.5,9.4-24.2,12.4
				c-10.4,3.6-21.5,5.6-33.1,5.6s-22.7-2-33.1-5.6c-8.7-3-16.8-7.2-24.2-12.4c-25.9-18.1-43-48.2-43-82.2c0-19.8,5.8-38.2,15.7-53.8
				c-0.3,0-0.6,0.1-0.9,0.1c-1.2,0-7.6-1.3-8-1.3c-0.8,0-3-0.3-3.5-0.3c-0.4,0-0.8,0-1.2-0.1c-9.3,16.4-14.5,35.2-14.5,55.3
				c0,32.4,13.8,61.7,35.7,82.2h-55.9v-67.2c0-3.2-2.3-6-5.4-6.4c-3.8-0.5-7,2.5-7,6.2v67.4h-15.9c-5.1,0-9.2-4.1-9.2-9.2v-146
				c0-3.7,2.2-6.9,5.3-8.3c-1.9-1.6-3.6-3.5-4.8-5.8c-0.3-0.5-0.5-1.1-0.6-1.7c-1.2-0.4-2.3-1-3.3-1.8c-5.5,3.9-9.1,10.3-9.1,17.6
				v146.1c0,11.9,9.7,21.6,21.6,21.6h100.1c17.6,11.4,38.6,18,61.1,18s43.5-6.6,61.1-18h52.4c11.9,0,21.6-9.7,21.6-21.6V298.1
				C419.8,290.1,415.5,283.2,409,279.5z"/>
		</g>
	</g>
	<g>
		<g>
			<path class="st0" d="M339,310.4c-0.4,0.2-0.8,0.4-1.2,0.5c-4.5,1.9-9.6,2.4-14.8,2.7c18.6,12.4,30.9,33.5,30.9,57.5
				c0,13.9-4.1,27.3-11.9,38.7c-1.9,2.8-1.2,6.7,1.7,8.6c2.8,1.9,6.7,1.2,8.6-1.7c9.2-13.5,14-29.3,14-45.7
				C366.2,347.1,355.7,325.4,339,310.4z"/>
			<path class="st0" d="M301.1,438.3c-5.3,1.3-10.9,2-16.4,2c-38.1,0-69.1-31-69.1-69.1c0-20.9,9.4-39.7,24.1-52.4
				c-3.7,0.5-7.5,0.6-11-0.8c-1.5-0.6-2.6-1.6-3.2-2.8c-13.8,14.6-22.3,34.3-22.3,55.9c0,44.9,36.6,81.5,81.5,81.5
				c6.5,0,13.1-0.8,19.4-2.3c3.3-0.8,5.4-4.2,4.6-7.5C307.8,439.5,304.5,437.5,301.1,438.3z"/>
		</g>
	</g>
	<g>
		<g>
			<path class="st0" d="M145.6,310.4c-12.7,0-23.1,10.4-23.1,23.1s10.4,23.1,23.1,23.1c12.7,0,23.1-10.4,23.1-23.1
				S158.4,310.4,145.6,310.4z M145.6,344.2c-5.9,0-10.7-4.8-10.7-10.7c0-5.9,4.8-10.7,10.7-10.7s10.7,4.8,10.7,10.7
				C156.3,339.4,151.5,344.2,145.6,344.2z"/>
		</g>
	</g>
	<g>
		<g>
			<path class="st0" d="M334.8,431.1c-0.1-0.4-0.2-0.8-0.4-1.2c-0.2-0.4-0.3-0.7-0.6-1.1c-0.2-0.3-0.5-0.7-0.8-0.9
				c-0.3-0.3-0.6-0.5-0.9-0.8c-0.3-0.2-0.7-0.4-1.1-0.6s-0.8-0.3-1.2-0.4c-0.8-0.2-1.6-0.2-2.4,0c-0.4,0.1-0.8,0.2-1.2,0.4
				c-0.4,0.2-0.7,0.3-1.1,0.6c-0.3,0.2-0.7,0.5-0.9,0.8c-0.3,0.3-0.5,0.6-0.8,0.9c-0.2,0.3-0.4,0.7-0.6,1.1s-0.3,0.8-0.4,1.2
				c-0.1,0.4-0.1,0.8-0.1,1.2s0,0.8,0.1,1.2c0.1,0.4,0.2,0.8,0.4,1.2c0.2,0.4,0.3,0.7,0.6,1.1c0.2,0.3,0.5,0.7,0.8,0.9
				c0.3,0.3,0.6,0.5,0.9,0.8c0.3,0.2,0.7,0.4,1.1,0.6s0.8,0.3,1.2,0.4c0.4,0.1,0.8,0.1,1.2,0.1c0.4,0,0.8,0,1.2-0.1
				c0.4-0.1,0.8-0.2,1.2-0.4c0.4-0.2,0.7-0.3,1.1-0.6c0.3-0.2,0.7-0.5,0.9-0.8c1.2-1.2,1.8-2.8,1.8-4.4
				C334.9,431.9,334.9,431.5,334.8,431.1z"/>
		</g>
	</g>
	<path class="st0" d="M405,290.4"/>
</g>
<g id="圖層_2_1_">
	<path class="st0" d="M248.9,270.3c3.9,0.2,7.9,0.3,12,0.3s8.1-0.1,12-0.3c2.4-0.1,4.2-2.1,4.2-4.5v-14.5c0-2.5-2.2-4.6-4.7-4.5
		c-7.5,0.4-15.5,0.4-23,0c-2.5-0.1-4.7,1.9-4.7,4.5v14.5C244.7,268.2,246.5,270.1,248.9,270.3L248.9,270.3z M253.6,256
		c4.8,0.2,9.7,0.2,14.5,0v5.5c-4.8,0.2-9.7,0.2-14.5,0V256z"/>
	<path class="st0" d="M389.6,244.8c-2.2-1.1-4.9-0.3-6,1.9s-0.3,4.9,1.9,6c12,6.2,18.7,13.2,18.7,19.7c0,9.9-15,20.4-40.1,28.2
		c-27.5,8.5-64.1,13.3-103.2,13.3c-19,0-37.5-1.1-55-3.3c-2.4-0.3-4.7,1.4-5,3.9c-0.3,2.4,1.4,4.7,3.9,5c17.8,2.2,36.7,3.4,56.1,3.4
		c39.9,0,77.5-4.9,105.8-13.7c30.4-9.4,46.4-22.2,46.4-36.8C413.2,262.1,405.2,252.8,389.6,244.8z"/>
	<path class="st0" d="M188.5,308c-3.1-0.6-6.1-1.1-9.1-1.8c-37.4-7.9-61.8-21.1-61.8-33.8c0-11.6,20.5-23.8,52.9-31.7
		c-0.5,2.9-0.9,5.2-1.2,7c-0.3,1.1-0.5,2.3-0.5,3.4c0,7.4,6.6,13.7,19.7,18.7c10.6,4.1,24.9,7.1,41.5,8.9c2.7,4.7,7.7,7.9,13.5,8.2
		c5.8,0.2,29.4,0.2,35.1,0c5.8-0.2,10.8-3.5,13.5-8.2c16.6-1.7,30.9-4.8,41.5-8.9c13.1-5,19.7-11.3,19.7-18.7c0-1.1-0.2-2.3-0.5-3.4
		c-0.3-1.6-0.7-3.9-1.2-7c6.6,1.6,12.7,3.4,18.3,5.4c2.4,0.8,5.1-0.6,5.8-3.1c0.6-2.2-0.7-4.6-2.9-5.4c-6.9-2.4-14.7-4.6-23-6.5
		c-4.4-23-12.7-63.7-24-103c4.8,0.5,9.4,0.8,13.8,0.8c11.3,0,20.8-1.9,26.4-6.4c4.7-3.9,6.3-9.4,4.3-15.6c-1.6-5.2-8.1-15.6-45.8-46
		c-20.7-16.7-40.7-31.3-46-35.1c-6-5.2-11.6-7.5-17.5-7.5c-22.1,0-42.9,34.7-63.7,106.1c-0.7,2.2,0.6,4.7,2.8,5.5
		c2.4,0.8,5.1-0.5,5.8-3c25.2-86.7,45.3-99.6,55.1-99.6c3.7,0,7.4,2,11.6,5.3c4.8,3.8,85.8,66.5,89.1,77c1.1,3.4-0.1,4.9-1.4,6
		c-5.2,4.3-19.5,5.5-37.1,3.1c-17.7-2.4-36.2-7.9-48.1-14.4c-2.2-1.2-4.9-0.4-6.1,1.8c-1.2,2.2-0.4,4.9,1.8,6.1
		c11.2,6.2,28.4,11.7,45.3,14.6c10,34.3,17.8,70.1,22.6,94.5c-9.4,5.8-28.3,10.6-50.9,12.6c-3-2.3-6.7-3.5-10.6-3.3l0,0
		c-10.6,0.4-21.7,0.4-32.3,0c-3.9-0.2-7.6,1-10.6,3.3c-22.6-2.1-41.5-6.8-50.9-12.6c4-20.3,10.1-48.7,17.8-77.2
		c0.6-2.4-0.8-4.8-3.2-5.5c-2.4-0.6-4.8,0.8-5.5,3.2c-9.3,34.9-16.3,68.7-20.2,89.4c-18.2,4.2-33.4,9.7-44.2,15.9
		c-12.9,7.5-19.4,16.1-19.4,25.4c0,10.2,7.7,19.4,23,27.4c13.5,7.1,32.6,12.9,55.3,17c2.4,0.4,4.8-1.3,5.2-3.7
		C192.5,310.7,190.9,308.4,188.5,308L188.5,308z M344.2,251.1c0,5.2-16,14.3-50.1,18.3v-22.5c0-1.6-0.2-3.2-0.7-4.6
		c20.1-2.2,36.5-6.3,46.9-11.8C342.1,239.7,344.2,250.5,344.2,251.1z M244.1,239.4c0.1,0,0.2,0,0.3,0c10.9,0.4,22.2,0.4,33,0
		c4.2-0.2,7.8,3.2,7.8,7.4v23.5c0,4-3.1,7.3-7.1,7.4c-11.3,0.5-23.1,0.5-34.4,0c-4-0.2-7.1-3.4-7.1-7.4v-23.5
		C236.6,242.8,240,239.4,244.1,239.4L244.1,239.4z M228.3,242.2c-0.4,1.5-0.7,3-0.7,4.6v22.5c-34.1-4-50.1-13.1-50.1-18.3
		c0-0.6,2-11.2,3.8-20.6C191.8,235.9,208.2,240,228.3,242.2L228.3,242.2z"/>
	<path class="st0" d="M212.8,311.4v9c-2.7-0.3-5.3-0.6-8.1-0.9c-8.9-1.1-17.5-2.6-25.6-4.2c0.1-3,0.2-6.1,0.2-9.1
		c5.7,1,11.6,2,17.6,2.9C202.4,310,207.7,310.7,212.8,311.4z"/>
	<path class="st0" d="M-314,95"/>
</g>
</svg>
